<svg width="506" height="256" viewBox="0 0 506 256" fill="none" xmlns="http://www.w3.org/2000/svg">
<path d="M3 130.404L4.25313 130.03L5.50627 129.656L6.7594 129.282L8.01253 128.908L9.26566 128.535L10.5188 128.163L11.7719 127.791L13.0251 127.419L14.2782 127.049L15.5313 126.679L16.7845 126.31L18.0376 125.942L19.2907 125.575L20.5439 125.21L21.797 124.845L23.0501 124.482L24.3033 124.121L25.5564 123.761L26.8095 123.403L28.0627 123.046L29.3158 122.691L30.5689 122.338L31.8221 121.987L33.0752 121.639L34.3283 121.292L35.5815 120.948L36.8346 120.606L38.0877 120.266L39.3409 119.929L40.594 119.594L41.8471 119.262L43.1003 118.933L44.3534 118.607L45.6065 118.283L46.8596 117.963L48.1128 117.646L49.3659 117.332L50.619 117.021L51.8722 116.713L53.1253 116.409L54.3784 116.108L55.6316 115.81L56.8847 115.517L58.1378 115.227L59.391 114.94L60.6441 114.658L61.8972 114.379L63.1504 114.105L64.4035 113.834L65.6566 113.568L66.9098 113.305L68.1629 113.047L69.416 112.793L70.6692 112.544L71.9223 112.299L73.1754 112.058L74.4286 111.822L75.6817 111.59L76.9348 111.363L78.188 111.141L79.4411 110.924L80.6942 110.711L81.9474 110.503L83.2005 110.3L84.4536 110.103L85.7068 109.91L86.9599 109.722L88.213 109.539L89.4662 109.361L90.7193 109.189L91.9724 109.022L93.2256 108.86L94.4787 108.703L95.7318 108.552L96.985 108.406L98.2381 108.266L99.4912 108.131L100.744 108.002L101.997 107.878L103.251 107.759L104.504 107.647L105.757 107.539L107.01 107.438L108.263 107.342L109.516 107.252L110.769 107.167L112.023 107.089L113.276 107.016L114.529 106.949L115.782 106.887L117.035 106.832L118.288 106.782L119.541 106.738L120.794 106.7L122.048 106.667L123.301 106.641L124.554 106.62L125.807 106.606L127.06 106.597L128.313 106.594L129.566 106.597L130.82 106.606L132.073 106.62L133.326 106.641L134.579 106.667L135.832 106.7L137.085 106.738L138.338 106.782L139.591 106.832L140.845 106.887L142.098 106.949L143.351 107.016L144.604 107.089L145.857 107.167L147.11 107.252L148.363 107.342L149.617 107.438L150.87 107.539L152.123 107.647L153.376 107.759L154.629 107.878L155.882 108.002L157.135 108.131L158.388 108.266L159.642 108.406L160.895 108.552L162.148 108.703L163.401 108.86L164.654 109.022L165.907 109.189L167.16 109.361L168.414 109.539L169.667 109.722L170.92 109.91L172.173 110.103L173.426 110.3L174.679 110.503L175.932 110.711L177.185 110.924L178.439 111.141L179.692 111.363L180.945 111.59L182.198 111.822L183.451 112.058L184.704 112.299L185.957 112.544L187.211 112.793L188.464 113.047L189.717 113.305L190.97 113.568L192.223 113.834L193.476 114.105L194.729 114.379L195.982 114.658L197.236 114.94L198.489 115.227L199.742 115.517L200.995 115.81L202.248 116.108L203.501 116.409L204.754 116.713L206.008 117.021L207.261 117.332L208.514 117.646L209.767 117.963L211.02 118.283L212.273 118.607L213.526 118.933L214.779 119.262L216.033 119.594L217.286 119.929L218.539 120.266L219.792 120.606L221.045 120.948L222.298 121.292L223.551 121.639L224.805 121.987L226.058 122.338L227.311 122.691L228.564 123.046L229.817 123.403L231.07 123.761L232.323 124.121L233.576 124.482L234.83 124.845L236.083 125.21L237.336 125.575L238.589 125.942L239.842 126.31L241.095 126.679L242.348 127.049L243.602 127.419L244.855 127.791L246.108 128.163L247.361 128.535L248.614 128.908L249.867 129.282L251.12 129.656L252.373 130.03L253.627 130.404L254.88 130.777L256.133 131.151L257.386 131.525L258.639 131.899L259.892 132.272L261.145 132.644L262.398 133.016L263.652 133.388L264.905 133.758L266.158 134.128L267.411 134.497L268.664 134.865L269.917 135.232L271.17 135.597L272.424 135.962L273.677 136.325L274.93 136.686L276.183 137.046L277.436 137.404L278.689 137.761L279.942 138.116L281.195 138.469L282.449 138.82L283.702 139.168L284.955 139.515L286.208 139.859L287.461 140.201L288.714 140.541L289.967 140.878L291.221 141.213L292.474 141.545L293.727 141.874L294.98 142.2L296.233 142.524L297.486 142.844L298.739 143.161L299.992 143.475L301.246 143.786L302.499 144.094L303.752 144.398L305.005 144.699L306.258 144.997L307.511 145.29L308.764 145.58L310.018 145.867L311.271 146.149L312.524 146.428L313.777 146.702L315.03 146.973L316.283 147.239L317.536 147.502L318.789 147.76L320.043 148.014L321.296 148.263L322.549 148.508L323.802 148.749L325.055 148.985L326.308 149.217L327.561 149.444L328.815 149.666L330.068 149.883L331.321 150.096L332.574 150.304L333.827 150.507L335.08 150.704L336.333 150.897L337.586 151.085L338.84 151.268L340.093 151.446L341.346 151.618L342.599 151.785L343.852 151.947L345.105 152.104L346.358 152.255L347.612 152.401L348.865 152.541L350.118 152.676L351.371 152.805L352.624 152.929L353.877 153.048L355.13 153.16L356.383 153.268L357.637 153.369L358.89 153.465L360.143 153.555L361.396 153.64L362.649 153.718L363.902 153.791L365.155 153.858L366.409 153.92L367.662 153.975L368.915 154.025L370.168 154.069L371.421 154.107L372.674 154.14L373.927 154.166L375.18 154.187L376.434 154.201L377.687 154.21L378.94 154.213L380.193 154.21L381.446 154.201L382.699 154.187L383.952 154.166L385.206 154.14L386.459 154.107L387.712 154.069L388.965 154.025L390.218 153.975L391.471 153.92L392.724 153.858L393.977 153.791L395.231 153.718L396.484 153.64L397.737 153.555L398.99 153.465L400.243 153.369L401.496 153.268L402.749 153.16L404.003 153.048L405.256 152.929L406.509 152.805L407.762 152.676L409.015 152.541L410.268 152.401L411.521 152.255L412.774 152.104L414.028 151.947L415.281 151.785L416.534 151.618L417.787 151.446L419.04 151.268L420.293 151.085L421.546 150.897L422.799 150.704L424.053 150.507L425.306 150.304L426.559 150.096L427.812 149.883L429.065 149.666L430.318 149.444L431.571 149.217L432.825 148.985L434.078 148.749L435.331 148.508L436.584 148.263L437.837 148.014L439.09 147.76L440.343 147.502L441.596 147.239L442.85 146.973L444.103 146.702L445.356 146.428L446.609 146.149L447.862 145.867L449.115 145.58L450.368 145.29L451.622 144.997L452.875 144.699L454.128 144.398L455.381 144.094L456.634 143.786L457.887 143.475L459.14 143.161L460.393 142.844L461.647 142.524L462.9 142.2L464.153 141.874L465.406 141.545L466.659 141.213L467.912 140.878L469.165 140.541L470.419 140.201L471.672 139.859L472.925 139.515L474.178 139.168L475.431 138.82L476.684 138.469L477.937 138.116L479.19 137.761L480.444 137.404L481.697 137.046L482.95 136.686L484.203 136.325L485.456 135.962L486.709 135.597L487.962 135.232L489.216 134.865L490.469 134.497L491.722 134.128L492.975 133.758L494.228 133.388L495.481 133.016L496.734 132.644L497.987 132.272L499.241 131.899L500.494 131.525L501.747 131.151L503 130.777" stroke="white" stroke-width="5" stroke-miterlimit="10" stroke-linecap="round" stroke-linejoin="round"/>
<path d="M3 130.404L4.25313 129.439L5.50627 128.475L6.7594 127.511L8.01253 126.548L9.26566 125.586L10.5188 124.625L11.7719 123.665L13.0251 122.708L14.2782 121.752L15.5313 120.798L16.7845 119.846L18.0376 118.898L19.2907 117.952L20.5439 117.009L21.797 116.069L23.0501 115.133L24.3033 114.201L25.5564 113.272L26.8095 112.348L28.0627 111.429L29.3158 110.514L30.5689 109.604L31.8221 108.699L33.0752 107.799L34.3283 106.905L35.5815 106.017L36.8346 105.135L38.0877 104.259L39.3409 103.39L40.594 102.527L41.8471 101.671L43.1003 100.822L44.3534 99.9806L45.6065 99.1466L46.8596 98.3203L48.1128 97.5019L49.3659 96.6916L50.619 95.8896L51.8722 95.0962L53.1253 94.3114L54.3784 93.5356L55.6316 92.7689L56.8847 92.0114L58.1378 91.2634L59.391 90.5251L60.6441 89.7966L61.8972 89.0782L63.1504 88.3699L64.4035 87.672L65.6566 86.9847L66.9098 86.308L68.1629 85.6423L69.416 84.9876L70.6692 84.3441L71.9223 83.7119L73.1754 83.0913L74.4286 82.4823L75.6817 81.8852L76.9348 81.3001L78.188 80.727L79.4411 80.1662L80.6942 79.6179L81.9474 79.082L83.2005 78.5588L84.4536 78.0484L85.7068 77.5509L86.9599 77.0665L88.213 76.5952L89.4662 76.1372L90.7193 75.6926L91.9724 75.2615L93.2256 74.844L94.4787 74.4402L95.7318 74.0502L96.985 73.6741L98.2381 73.312L99.4912 72.964L100.744 72.6301L101.997 72.3106L103.251 72.0053L104.504 71.7145L105.757 71.4381L107.01 71.1763L108.263 70.9291L109.516 70.6966L110.769 70.4788L112.023 70.2758L113.276 70.0876L114.529 69.9143L115.782 69.756L117.035 69.6126L118.288 69.4842L119.541 69.3708L120.794 69.2725L122.048 69.1893L123.301 69.1212L124.554 69.0682L125.807 69.0303L127.06 69.0076L128.313 69L129.566 69.0076L130.82 69.0303L132.073 69.0682L133.326 69.1212L134.579 69.1893L135.832 69.2725L137.085 69.3708L138.338 69.4842L139.591 69.6126L140.845 69.756L142.098 69.9143L143.351 70.0876L144.604 70.2758L145.857 70.4788L147.11 70.6966L148.363 70.9291L149.617 71.1763L150.87 71.4381L152.123 71.7145L153.376 72.0053L154.629 72.3106L155.882 72.6301L157.135 72.964L158.388 73.312L159.642 73.6741L160.895 74.0502L162.148 74.4402L163.401 74.844L164.654 75.2615L165.907 75.6926L167.16 76.1372L168.414 76.5952L169.667 77.0665L170.92 77.5509L172.173 78.0484L173.426 78.5588L174.679 79.082L175.932 79.6179L177.185 80.1662L178.439 80.727L179.692 81.3001L180.945 81.8852L182.198 82.4823L183.451 83.0913L184.704 83.7119L185.957 84.3441L187.211 84.9876L188.464 85.6423L189.717 86.308L190.97 86.9847L192.223 87.672L193.476 88.3699L194.729 89.0782L195.982 89.7966L197.236 90.5251L198.489 91.2634L199.742 92.0114L200.995 92.7689L202.248 93.5356L203.501 94.3114L204.754 95.0962L206.008 95.8896L207.261 96.6916L208.514 97.5019L209.767 98.3203L211.02 99.1466L212.273 99.9806L213.526 100.822L214.779 101.671L216.033 102.527L217.286 103.39L218.539 104.259L219.792 105.135L221.045 106.017L222.298 106.905L223.551 107.799L224.805 108.699L226.058 109.604L227.311 110.514L228.564 111.429L229.817 112.348L231.07 113.272L232.323 114.201L233.576 115.133L234.83 116.069L236.083 117.009L237.336 117.952L238.589 118.898L239.842 119.846L241.095 120.798L242.348 121.752L243.602 122.708L244.855 123.665L246.108 124.625L247.361 125.586L248.614 126.548L249.867 127.511L251.12 128.475L252.373 129.439L253.627 130.404L254.88 131.368L256.133 132.332L257.386 133.296L258.639 134.259L259.892 135.221L261.145 136.182L262.398 137.142L263.652 138.099L264.905 139.055L266.158 140.009L267.411 140.961L268.664 141.909L269.917 142.855L271.17 143.798L272.424 144.738L273.677 145.674L274.93 146.606L276.183 147.535L277.436 148.459L278.689 149.378L279.942 150.293L281.195 151.203L282.449 152.108L283.702 153.008L284.955 153.902L286.208 154.79L287.461 155.672L288.714 156.548L289.967 157.417L291.221 158.28L292.474 159.136L293.727 159.985L294.98 160.826L296.233 161.66L297.486 162.487L298.739 163.305L299.992 164.115L301.246 164.917L302.499 165.711L303.752 166.496L305.005 167.271L306.258 168.038L307.511 168.796L308.764 169.544L310.018 170.282L311.271 171.01L312.524 171.729L313.777 172.437L315.03 173.135L316.283 173.822L317.536 174.499L318.789 175.165L320.043 175.819L321.296 176.463L322.549 177.095L323.802 177.716L325.055 178.325L326.308 178.922L327.561 179.507L328.815 180.08L330.068 180.641L331.321 181.189L332.574 181.725L333.827 182.248L335.08 182.759L336.333 183.256L337.586 183.741L338.84 184.212L340.093 184.67L341.346 185.114L342.599 185.546L343.852 185.963L345.105 186.367L346.358 186.757L347.612 187.133L348.865 187.495L350.118 187.843L351.371 188.177L352.624 188.496L353.877 188.802L355.13 189.093L356.383 189.369L357.637 189.631L358.89 189.878L360.143 190.11L361.396 190.328L362.649 190.531L363.902 190.719L365.155 190.893L366.409 191.051L367.662 191.194L368.915 191.323L370.168 191.436L371.421 191.534L372.674 191.618L373.927 191.686L375.18 191.739L376.434 191.777L377.687 191.799L378.94 191.807L380.193 191.799L381.446 191.777L382.699 191.739L383.952 191.686L385.206 191.618L386.459 191.534L387.712 191.436L388.965 191.323L390.218 191.194L391.471 191.051L392.724 190.893L393.977 190.719L395.231 190.531L396.484 190.328L397.737 190.11L398.99 189.878L400.243 189.631L401.496 189.369L402.749 189.093L404.003 188.802L405.256 188.496L406.509 188.177L407.762 187.843L409.015 187.495L410.268 187.133L411.521 186.757L412.774 186.367L414.028 185.963L415.281 185.546L416.534 185.114L417.787 184.67L419.04 184.212L420.293 183.741L421.546 183.256L422.799 182.759L424.053 182.248L425.306 181.725L426.559 181.189L427.812 180.641L429.065 180.08L430.318 179.507L431.571 178.922L432.825 178.325L434.078 177.716L435.331 177.095L436.584 176.463L437.837 175.819L439.09 175.165L440.343 174.499L441.596 173.822L442.85 173.135L444.103 172.437L445.356 171.729L446.609 171.01L447.862 170.282L449.115 169.544L450.368 168.796L451.622 168.038L452.875 167.271L454.128 166.496L455.381 165.711L456.634 164.917L457.887 164.115L459.14 163.305L460.393 162.487L461.647 161.66L462.9 160.826L464.153 159.985L465.406 159.136L466.659 158.28L467.912 157.417L469.165 156.548L470.419 155.672L471.672 154.79L472.925 153.902L474.178 153.008L475.431 152.108L476.684 151.203L477.937 150.293L479.19 149.378L480.444 148.459L481.697 147.535L482.95 146.606L484.203 145.674L485.456 144.738L486.709 143.798L487.962 142.855L489.216 141.909L490.469 140.961L491.722 140.009L492.975 139.055L494.228 138.099L495.481 137.142L496.734 136.182L497.987 135.221L499.241 134.259L500.494 133.296L501.747 132.332L503 131.368" stroke="white" stroke-width="5" stroke-miterlimit="10" stroke-linecap="round" stroke-linejoin="round"/>
<path d="M149.608 180.48C144.659 184.917 138.856 188.331 132.2 190.72C125.544 192.939 118.547 194.048 111.208 194.048C104.552 194.048 98.3227 193.365 92.52 192C86.888 190.635 81.9387 188.843 77.672 186.624C73.064 184.576 69.1387 182.357 65.896 179.968C62.6533 177.408 60.0933 175.019 58.216 172.8V145.408H68.456V168.448C73.064 172.715 78.7813 176.384 85.608 179.456C92.4347 182.528 100.627 184.064 110.184 184.064C115.987 184.064 121.533 183.125 126.824 181.248C132.115 179.371 136.893 176.811 141.16 173.568C145.085 170.155 148.328 166.059 150.888 161.28C153.448 156.331 154.728 150.869 154.728 144.896C154.728 138.923 153.789 133.717 151.912 129.28C150.205 124.843 147.731 121.173 144.488 118.272C141.075 114.859 137.064 112.213 132.456 110.336C128.019 108.288 123.24 106.325 118.12 104.448C112.147 102.571 106.003 100.693 99.688 98.816C93.544 96.9387 87.912 94.5493 82.792 91.648C77.5013 88.576 73.1493 84.5653 69.736 79.616C66.3227 74.6667 64.4453 68.0107 64.104 59.648C63.9333 54.016 64.616 48.384 66.152 42.752C67.8587 36.9493 70.5893 31.744 74.344 27.136C78.0987 22.528 82.9627 18.8587 88.936 16.128C94.9093 13.2267 102.163 11.776 110.696 11.776C113.597 11.776 116.755 11.9467 120.168 12.288C123.581 12.6293 127.08 13.2267 130.664 14.08C134.077 14.9333 137.576 16.2987 141.16 18.176C144.915 19.8827 148.413 22.016 151.656 24.576V52.224H141.416V29.696C138.173 27.648 133.907 25.856 128.616 24.32C123.496 22.6133 117.437 21.76 110.44 21.76C104.296 21.76 98.92 22.784 94.312 24.832C89.8747 26.88 86.2053 29.6107 83.304 33.024C80.4027 36.4373 78.184 40.2773 76.648 44.544C75.2827 48.8107 74.6 53.248 74.6 57.856C74.6 65.536 76.4773 71.5093 80.232 75.776C83.9867 79.872 88.7653 83.2 94.568 85.76C101.224 88.832 108.648 91.392 116.84 93.44C125.203 95.488 133.053 98.304 140.392 101.888C147.389 105.472 153.192 110.507 157.8 116.992C162.579 123.477 165.053 132.608 165.224 144.384C165.224 151.893 163.773 158.72 160.872 164.864C158.141 171.008 154.387 176.213 149.608 180.48ZM231.666 192H180.21V182.016H200.178V22.784H180.21V12.8H231.666V22.784H210.674V182.016H231.666V192ZM426.862 22.784V200.192L285.038 36.352L280.43 30.464L280.942 37.888V182.016H301.166V192H249.71V182.016H270.446V22.784H249.71V12.8H277.358L412.27 169.984L417.134 176.64L416.366 168.448V22.784H396.91V12.8H448.366V22.784H426.862Z" fill="url(#paint0_linear_1_4)"/>
<defs>
<linearGradient id="paint0_linear_1_4" x1="448.5" y1="13.5" x2="60.5" y2="192" gradientUnits="userSpaceOnUse">
<stop stop-color="#CAFFE5"/>
<stop offset="1" stop-color="white"/>
</linearGradient>
</defs>
</svg>
